<svg xmlns="http://www.w3.org/2000/svg" width="800.153" height="799.092" viewBox="0 0 800.153 799.092" xmlns:xlink="http://www.w3.org/1999/xlink" role="img" artist="Katerina Limpitsouni" source="https://undraw.co/"><g transform="translate(0 0)"><path d="M877.981,239.193,267.988,127.434a9.37,9.37,0,0,0-3.755.044,7.744,7.744,0,0,0-3.081,1.439,7.246,7.246,0,0,0-2.085,2.6,8.09,8.09,0,0,0-.766,3.508V681.507a8.094,8.094,0,0,0,.764,3.509,7.247,7.247,0,0,0,2.083,2.6,7.744,7.744,0,0,0,3.08,1.441,9.368,9.368,0,0,0,3.755.047l610-111.76a2.885,2.885,0,0,0,1.356-.688,5.161,5.161,0,0,0,1.1-1.4,7.845,7.845,0,0,0,.743-1.909,9.179,9.179,0,0,0,.273-2.216V245.424a9.177,9.177,0,0,0-.272-2.222,7.859,7.859,0,0,0-.743-1.91,5.169,5.169,0,0,0-1.1-1.4,2.89,2.89,0,0,0-1.356-.689Z" transform="translate(-169.639 -127.265)" fill="#e4e4e4"/><path d="M885.981,239.193,275.988,127.434a9.371,9.371,0,0,0-3.755.044,7.744,7.744,0,0,0-3.081,1.439,7.247,7.247,0,0,0-2.085,2.6,8.091,8.091,0,0,0-.766,3.508V681.507a8.094,8.094,0,0,0,.764,3.509,7.247,7.247,0,0,0,2.083,2.6,7.744,7.744,0,0,0,3.08,1.441,9.368,9.368,0,0,0,3.755.047l610-111.76a2.885,2.885,0,0,0,1.356-.688,5.161,5.161,0,0,0,1.1-1.4,7.845,7.845,0,0,0,.743-1.909,9.167,9.167,0,0,0,.273-2.216V245.424a9.171,9.171,0,0,0-.272-2.222,7.854,7.854,0,0,0-.743-1.91,5.171,5.171,0,0,0-1.1-1.4,2.89,2.89,0,0,0-1.356-.689Z" transform="translate(-168.309 -127.265)" fill="#fff"/><path d="M885.981,239.193,275.988,127.434a9.371,9.371,0,0,0-3.755.044,7.744,7.744,0,0,0-3.081,1.439,7.247,7.247,0,0,0-2.085,2.6,8.091,8.091,0,0,0-.766,3.508V681.507a8.094,8.094,0,0,0,.764,3.509,7.247,7.247,0,0,0,2.083,2.6,7.744,7.744,0,0,0,3.08,1.441,9.368,9.368,0,0,0,3.755.047l610-111.76a2.885,2.885,0,0,0,1.356-.688,5.161,5.161,0,0,0,1.1-1.4,7.845,7.845,0,0,0,.743-1.909,9.167,9.167,0,0,0,.273-2.216V245.424a9.171,9.171,0,0,0-.272-2.222,7.854,7.854,0,0,0-.743-1.91,5.171,5.171,0,0,0-1.1-1.4,2.89,2.89,0,0,0-1.356-.689ZM888.3,571.326a6.125,6.125,0,0,1-.182,1.483,5.241,5.241,0,0,1-.5,1.275,3.442,3.442,0,0,1-.737.933,1.923,1.923,0,0,1-.9.457l-609.99,110.52a6.236,6.236,0,0,1-2.5-.035,5.159,5.159,0,0,1-2.049-.962,4.831,4.831,0,0,1-1.385-1.731,5.4,5.4,0,0,1-.508-2.332V135.6a5.4,5.4,0,0,1,.507-2.332,4.831,4.831,0,0,1,1.384-1.733,5.158,5.158,0,0,1,2.048-.963,6.239,6.239,0,0,1,2.5-.036L885.984,241.061a1.922,1.922,0,0,1,.9.457,3.438,3.438,0,0,1,.737.933,5.234,5.234,0,0,1,.5,1.273,6.125,6.125,0,0,1,.182,1.483V571.325Z" transform="translate(-168.309 -127.265)" fill="#cacaca"/><path d="M182.272,276.982a25.5,25.5,0,0,1,2.31-10.808,22.782,22.782,0,0,1,6.265-8.077,23.425,23.425,0,0,1,9.2-4.563,27.1,27.1,0,0,1,11.112-.335,32.086,32.086,0,0,1,10.949,4.064,35.286,35.286,0,0,1,8.822,7.447,34.556,34.556,0,0,1,5.889,9.77,30.412,30.412,0,0,1,2.148,11.1,25.581,25.581,0,0,1-2.148,10.449,22.845,22.845,0,0,1-5.889,7.983,23.251,23.251,0,0,1-8.822,4.772,26.659,26.659,0,0,1-10.949.744h0a31.705,31.705,0,0,1-11.106-3.713,35.2,35.2,0,0,1-9.194-7.353,34.727,34.727,0,0,1-6.266-9.974,30.543,30.543,0,0,1-2.318-11.506Z" transform="translate(-182.271 -106.411)" fill="#090814"/><path d="M182.272,373.982a25.5,25.5,0,0,1,2.31-10.808,22.781,22.781,0,0,1,6.265-8.077,23.426,23.426,0,0,1,9.2-4.563,27.1,27.1,0,0,1,11.112-.335,32.084,32.084,0,0,1,10.949,4.064,35.286,35.286,0,0,1,8.822,7.447,34.555,34.555,0,0,1,5.889,9.77,30.412,30.412,0,0,1,2.148,11.1,25.581,25.581,0,0,1-2.148,10.449,22.844,22.844,0,0,1-5.889,7.983,23.251,23.251,0,0,1-8.822,4.772,26.658,26.658,0,0,1-10.949.744h0a31.705,31.705,0,0,1-11.106-3.713,35.2,35.2,0,0,1-9.194-7.353,34.726,34.726,0,0,1-6.266-9.974A30.542,30.542,0,0,1,182.272,373.982Z" transform="translate(-182.271 -90.294)" fill="#090814"/><path d="M182.272,470.982a25.5,25.5,0,0,1,2.31-10.808,22.781,22.781,0,0,1,6.265-8.077,23.425,23.425,0,0,1,9.2-4.563,27.1,27.1,0,0,1,11.112-.335,32.085,32.085,0,0,1,10.949,4.064,35.284,35.284,0,0,1,8.822,7.447,34.557,34.557,0,0,1,5.889,9.77,30.413,30.413,0,0,1,2.148,11.1,25.581,25.581,0,0,1-2.148,10.449,22.845,22.845,0,0,1-5.889,7.984,23.251,23.251,0,0,1-8.822,4.772,26.66,26.66,0,0,1-10.949.744h0a31.706,31.706,0,0,1-11.106-3.713,35.2,35.2,0,0,1-9.194-7.353,34.725,34.725,0,0,1-6.266-9.974,30.543,30.543,0,0,1-2.318-11.506Z" transform="translate(-182.271 -74.178)" fill="#090814"/><path d="M188.271,276.982a25.5,25.5,0,0,1,2.31-10.808,22.782,22.782,0,0,1,6.265-8.077,23.425,23.425,0,0,1,9.2-4.563,27.1,27.1,0,0,1,11.112-.335,32.086,32.086,0,0,1,10.949,4.064,35.285,35.285,0,0,1,8.822,7.447,34.556,34.556,0,0,1,5.889,9.77,30.413,30.413,0,0,1,2.148,11.1,25.582,25.582,0,0,1-2.148,10.449,22.845,22.845,0,0,1-5.889,7.983,23.25,23.25,0,0,1-8.822,4.772,26.659,26.659,0,0,1-10.949.744h0a31.706,31.706,0,0,1-11.106-3.713,35.2,35.2,0,0,1-9.194-7.353,34.726,34.726,0,0,1-6.266-9.974,30.542,30.542,0,0,1-2.318-11.506Z" transform="translate(-181.274 -106.411)" fill="#6c63ff"/><path d="M188.271,373.586a26.664,26.664,0,0,1,2.31-10.983,25.306,25.306,0,0,1,6.265-8.536,25.649,25.649,0,0,1,9.2-5.248,27.507,27.507,0,0,1,11.112-1.156,30.038,30.038,0,0,1,10.949,3.255,31.694,31.694,0,0,1,8.822,6.8,31.327,31.327,0,0,1,5.889,9.329A29.186,29.186,0,0,1,244.963,378a26.7,26.7,0,0,1-2.148,10.612A25.382,25.382,0,0,1,228.1,402.451,27.282,27.282,0,0,1,217.155,404h0a29.865,29.865,0,0,1-11.106-2.892,31.736,31.736,0,0,1-15.457-16.192,29.27,29.27,0,0,1-2.319-11.333Z" transform="translate(-181.274 -90.669)" fill="#6c63ff"/><path d="M188.271,470.21a27.885,27.885,0,0,1,8.575-20.152,28.474,28.474,0,0,1,45.964,9.589,28.114,28.114,0,0,1-25.654,38.837h0a28.53,28.53,0,0,1-26.565-17.113,28.021,28.021,0,0,1-2.319-11.161Z" transform="translate(-181.274 -74.947)" fill="#6c63ff"/><path d="M203.785,274.767l8.469,1.3v-8.35a2.512,2.512,0,0,1,.217-1.05,2.227,2.227,0,0,1,.6-.791,2.279,2.279,0,0,1,.889-.456,2.645,2.645,0,0,1,1.088-.047,3.164,3.164,0,0,1,1.088.39,3.509,3.509,0,0,1,.889.735,3.45,3.45,0,0,1,.6.976,3.021,3.021,0,0,1,.223,1.114v8.338l8.308,1.275a3.08,3.08,0,0,1,1.071.381,3.436,3.436,0,0,1,1.462,1.689,3,3,0,0,1,.216,1.1,2.52,2.52,0,0,1-.216,1.039,2.235,2.235,0,0,1-.583.786,2.263,2.263,0,0,1-.873.459,2.59,2.59,0,0,1-1.07.056l-8.319-1.244v8.319a2.53,2.53,0,0,1-.219,1.049,2.275,2.275,0,0,1-.6.8,2.321,2.321,0,0,1-.886.466,2.653,2.653,0,0,1-1.087.063,3.121,3.121,0,0,1-1.089-.373,3.437,3.437,0,0,1-.89-.723,3.381,3.381,0,0,1-.6-.97,2.992,2.992,0,0,1-.217-1.116v-8.35l-8.469-1.271a3.207,3.207,0,0,1-1.106-.386,3.525,3.525,0,0,1-.9-.736,3.44,3.44,0,0,1-.61-.977,3.009,3.009,0,0,1-.224-1.128,2.519,2.519,0,0,1,.224-1.058,2.264,2.264,0,0,1,.61-.8,2.339,2.339,0,0,1,.9-.466A2.71,2.71,0,0,1,203.785,274.767Z" transform="translate(-179.169 -104.324)" fill="#fff"/><path d="M208.477,380.872l23.517,1.7h.086l-11.028-20.023a.882.882,0,0,0-.286-.313.859.859,0,0,0-.188-.094.814.814,0,0,0-.206-.046.761.761,0,0,0-.205.009.718.718,0,0,0-.188.063.687.687,0,0,0-.286.265l-7.5,12.336-.361.594Z" transform="translate(-177.917 -88.247)" fill="#fff"/><path d="M196.968,379.265l20.748,1.5-3.977-6.036-.287-.436-5.215-7.917a1.192,1.192,0,0,0-.339-.306,1.164,1.164,0,0,0-.2-.1,1.118,1.118,0,0,0-.224-.055,1.072,1.072,0,0,0-.223-.008,1.023,1.023,0,0,0-.213.037.969.969,0,0,0-.2.082.943.943,0,0,0-.175.124l-.017.021-.022.021-.017.022-.017.022Z" transform="translate(-179.829 -87.614)" fill="#fff"/><path d="M210.927,359.666a3.754,3.754,0,0,1,1.373.392,3.983,3.983,0,0,1,1.118.845,3.934,3.934,0,0,1,.753,1.175,3.637,3.637,0,0,1,.276,1.383,3.3,3.3,0,0,1-.276,1.336,3.115,3.115,0,0,1-.753,1.05,3.159,3.159,0,0,1-1.118.656,3.406,3.406,0,0,1-1.373.162,3.75,3.75,0,0,1-1.375-.388,3.981,3.981,0,0,1-1.124-.844,3.935,3.935,0,0,1-.759-1.178,3.638,3.638,0,0,1-.279-1.39,3.3,3.3,0,0,1,.279-1.341,3.116,3.116,0,0,1,.759-1.05,3.16,3.16,0,0,1,1.124-.651,3.41,3.41,0,0,1,1.375-.159Z" transform="translate(-178.097 -88.654)" fill="#fff"/><path d="M428.034,459.587,660.891,238.652l1,1.749L429.49,461.456Z" transform="translate(-141.437 -108.758)" fill="#e6e6e6"/><path d="M428.066,213.625l1.46-1.749L661.863,453.065l-1,1.662Z" transform="translate(-141.432 -113.207)" fill="#e6e6e6"/><path d="M659.091,240.326l-226.35-31.1a6.958,6.958,0,0,0-3.119.266,6.706,6.706,0,0,0-2.557,1.544,7.456,7.456,0,0,0-1.732,2.566,8.863,8.863,0,0,0-.638,3.356V460.617a9.268,9.268,0,0,0,.638,3.405,8.338,8.338,0,0,0,1.731,2.715,7.489,7.489,0,0,0,2.557,1.749,7.175,7.175,0,0,0,3.119.523l226.351-12.466a4.59,4.59,0,0,0,2.152-.7,6.207,6.207,0,0,0,1.749-1.657,8.266,8.266,0,0,0,1.178-2.375,9.548,9.548,0,0,0,.433-2.852v-200.6a9.906,9.906,0,0,0-.433-2.889A9.1,9.1,0,0,0,662.991,243a7.019,7.019,0,0,0-1.749-1.8A4.96,4.96,0,0,0,659.091,240.326ZM432.741,466.5a5.124,5.124,0,0,1-2.226-.378,5.351,5.351,0,0,1-1.824-1.253,5.959,5.959,0,0,1-1.234-1.943A6.622,6.622,0,0,1,427,460.5V217.263a6.334,6.334,0,0,1,.455-2.392,5.328,5.328,0,0,1,1.234-1.836,4.791,4.791,0,0,1,1.824-1.1,4.967,4.967,0,0,1,2.226-.195l226.35,30.676a3.54,3.54,0,0,1,1.538.62,5.009,5.009,0,0,1,1.252,1.283,6.5,6.5,0,0,1,.843,1.767,7.076,7.076,0,0,1,.31,2.065V449.039a6.827,6.827,0,0,1-.31,2.041,5.908,5.908,0,0,1-.843,1.7,4.43,4.43,0,0,1-1.252,1.183,3.276,3.276,0,0,1-1.538.493Z" transform="translate(-141.992 -113.658)" fill="#e6e6e6"/><g transform="translate(279.023 351.858)"><path d="M425.767,458.214a3.452,3.452,0,0,0-1.664.646,5.238,5.238,0,0,0-1.35,1.459,7.487,7.487,0,0,0-.9,2.05,8.8,8.8,0,0,0-.311,2.428,8.178,8.178,0,0,0,.35,2.317,6.152,6.152,0,0,0,.91,1.843,4.1,4.1,0,0,0,1.338,1.193,3.031,3.031,0,0,0,1.633.367l396.263-32.812a1.358,1.358,0,0,0,.837-.384,3.168,3.168,0,0,0,.688-.966,6.16,6.16,0,0,0,.467-1.4,8.5,8.5,0,0,0,.182-1.7,8.244,8.244,0,0,0-.154-1.685,5.6,5.6,0,0,0-.448-1.363,2.729,2.729,0,0,0-.669-.908,1.22,1.22,0,0,0-.833-.308h-.07Z" transform="translate(-421.54 -428.991)" fill="#e6e6e6"/></g><g transform="translate(279.023 378.289)"><path d="M425.767,491.789a3.548,3.548,0,0,0-1.664.691,5.457,5.457,0,0,0-1.35,1.49,7.708,7.708,0,0,0-.9,2.075,8.886,8.886,0,0,0-.311,2.443,8.083,8.083,0,0,0,.35,2.308,5.955,5.955,0,0,0,.91,1.818,3.936,3.936,0,0,0,1.335,1.156,2.98,2.98,0,0,0,1.633.323l396.265-43.714a1.4,1.4,0,0,0,.837-.407,3.29,3.29,0,0,0,.688-.985,6.317,6.317,0,0,0,.466-1.418,8.565,8.565,0,0,0,.182-1.706,8.172,8.172,0,0,0-.154-1.682,5.463,5.463,0,0,0-.448-1.35,2.622,2.622,0,0,0-.673-.886,1.191,1.191,0,0,0-.833-.286h-.07Z" transform="translate(-421.54 -451.657)" fill="#e6e6e6"/></g><g transform="translate(279.023 404.296)"><path d="M425.767,524.819a3.652,3.652,0,0,0-1.664.737,5.676,5.676,0,0,0-1.35,1.528,7.942,7.942,0,0,0-.9,2.1,8.981,8.981,0,0,0-.311,2.45,7.979,7.979,0,0,0,.35,2.3,5.767,5.767,0,0,0,.91,1.794,3.786,3.786,0,0,0,1.335,1.12,2.938,2.938,0,0,0,1.633.279l396.265-54.439a1.444,1.444,0,0,0,.837-.429,3.421,3.421,0,0,0,.688-1,6.47,6.47,0,0,0,.466-1.431,8.654,8.654,0,0,0,.182-1.711,8.11,8.11,0,0,0-.154-1.677,5.332,5.332,0,0,0-.448-1.339,2.521,2.521,0,0,0-.673-.868,1.165,1.165,0,0,0-.833-.264h-.07Z" transform="translate(-421.54 -473.958)" fill="#e6e6e6"/></g><path d="M226.421,456.1l-22.621-.271a3.221,3.221,0,0,0-1.113.157,3.18,3.18,0,0,0-.96.51,3.126,3.126,0,0,0-.728.8,3.092,3.092,0,0,0-.414,1.03,3.008,3.008,0,0,0,.066,1.311,3.051,3.051,0,0,0,.245.615,3.1,3.1,0,0,0,.866,1.018,3.141,3.141,0,0,0,1.872.638l6.8.062a1.648,1.648,0,0,1,1.5,1,1.607,1.607,0,0,1,.128.631v13.345a3.108,3.108,0,0,0,.693,2.028,3.139,3.139,0,0,0,1.841,1.108,3.047,3.047,0,0,0,3.265-1.717,3.01,3.01,0,0,0,.282-1.27V463.643a1.6,1.6,0,0,1,1.6-1.6h.015l6.5.051a3.066,3.066,0,0,0,3.105-2.464,3.033,3.033,0,0,0-2.951-3.528Z" transform="translate(-179.235 -72.674)" fill="#fff"/><path d="M223.163,471.484a3,3,0,1,1-2.765,1.834A3,3,0,0,1,223.163,471.484Z" transform="translate(-175.975 -70.073)" fill="#fff"/><path d="M684.781,263.048l-226.35-31.1a6.958,6.958,0,0,0-3.12.266,6.707,6.707,0,0,0-2.557,1.544,7.456,7.456,0,0,0-1.732,2.565,8.865,8.865,0,0,0-.638,3.356V483.338a9.269,9.269,0,0,0,.638,3.405,8.338,8.338,0,0,0,1.731,2.715,7.491,7.491,0,0,0,2.557,1.749,7.176,7.176,0,0,0,3.12.522l226.351-12.466a4.59,4.59,0,0,0,2.152-.7,6.208,6.208,0,0,0,1.749-1.657,8.27,8.27,0,0,0,1.178-2.375,9.553,9.553,0,0,0,.432-2.852v-200.6a9.912,9.912,0,0,0-.433-2.889,9.108,9.108,0,0,0-1.178-2.472,7.016,7.016,0,0,0-1.749-1.8,4.96,4.96,0,0,0-2.151-.868Z" transform="translate(-137.724 -109.883)" fill="#6c63ff"/><path d="M684.781,263.048l-226.35-31.1a6.958,6.958,0,0,0-3.12.266,6.707,6.707,0,0,0-2.557,1.544,7.456,7.456,0,0,0-1.732,2.565,8.865,8.865,0,0,0-.638,3.356V483.338a9.269,9.269,0,0,0,.638,3.405,8.338,8.338,0,0,0,1.731,2.715,7.491,7.491,0,0,0,2.557,1.749,7.176,7.176,0,0,0,3.12.522l226.351-12.466a4.59,4.59,0,0,0,2.152-.7,6.208,6.208,0,0,0,1.749-1.657,8.27,8.27,0,0,0,1.178-2.375,9.553,9.553,0,0,0,.432-2.852v-200.6a9.912,9.912,0,0,0-.433-2.889,9.108,9.108,0,0,0-1.178-2.472,7.016,7.016,0,0,0-1.749-1.8,4.96,4.96,0,0,0-2.151-.868Z" transform="translate(-137.724 -109.883)" opacity="0.2"/><path d="M692.781,263.048l-226.35-31.1a6.958,6.958,0,0,0-3.12.266,6.706,6.706,0,0,0-2.557,1.544,7.458,7.458,0,0,0-1.732,2.565,8.865,8.865,0,0,0-.638,3.356V483.338a9.269,9.269,0,0,0,.638,3.405,8.339,8.339,0,0,0,1.731,2.715,7.49,7.49,0,0,0,2.557,1.749,7.174,7.174,0,0,0,3.119.522l226.351-12.466a4.59,4.59,0,0,0,2.151-.7,6.208,6.208,0,0,0,1.749-1.657,8.267,8.267,0,0,0,1.178-2.375,9.553,9.553,0,0,0,.433-2.852v-200.6a9.912,9.912,0,0,0-.433-2.889,9.1,9.1,0,0,0-1.178-2.472,7.016,7.016,0,0,0-1.749-1.8A4.96,4.96,0,0,0,692.781,263.048Z" transform="translate(-136.394 -109.883)" fill="#6c63ff"/><g transform="translate(528.702 241.272)"><path d="M286.393,122.792l22.134,20,11.68-12.923-22.134-20a18.283,18.283,0,0,0-6.24-12.683c-6.9-6.236-16.676-6.662-21.836-.952s-3.751,15.394,3.149,21.629a18.284,18.284,0,0,0,13.247,4.929Z" transform="translate(-240.967 -40.266)" fill="#ed9da0"/><path d="M297.4,174.192l-76.2-65.548-19.788,22.873,87.044,85.243" transform="translate(-156.482 -41.218)" fill="#e6e6e6"/><path d="M233.018,218.849l11.051,43.669-76.306-.942,8.732-39.9Z" transform="translate(-71.447 -47.605)" fill="#ed9da0"/><path d="M178.753,377.223,195.32,449.7l30.492,145.116-14.131,2.826L114.556,381.364Z" transform="translate(-3.067 -56.782)" fill="#ed9da0"/><path d="M292.75,392.565l-30.6,67.761-44.94,136.151-18.841-4.71L239.1,357.07Z" transform="translate(-148.96 -55.615)" fill="#ed9da0"/><path d="M244.994,247.784s34.068,92.61,27.855,194.912c0,0-50.225,58.711-130.911,4.363l33.213-204.6,69.842,5.328Z" transform="translate(-76.657 -48.973)" fill="#090814"/><path d="M176.639,624.718a6.3,6.3,0,0,0,2.6-4.413c.12-1.829-.784-3.79-2.685-5.831-.046-.587-.636-7.863-1.951-9.166.11-.389.78-2.971-.318-4.648a3.183,3.183,0,0,0-2.478-1.368l-.049-.005-.024.043c-.032.057-3.232,5.685-8.046,6.179-2.76.283-5.523-1.154-8.213-4.274-.1-.231-.857-4.031-1.347-6.546l-.02-.1-26.228,13.959-15.331,4.3a4.538,4.538,0,0,0-.743,8.428l7.431,3.617a23.012,23.012,0,0,0,10.013,2.31h40.311a11.17,11.17,0,0,0,7.076-2.481Z" transform="translate(48.466 -69.379)" fill="#090814"/><path d="M335.638,624.718a6.3,6.3,0,0,0,2.6-4.413c.12-1.829-.784-3.79-2.685-5.831-.046-.587-.636-7.863-1.951-9.166.11-.389.78-2.971-.318-4.648a3.183,3.183,0,0,0-2.478-1.368l-.049-.005-.024.043c-.032.057-3.232,5.685-8.046,6.179-2.76.283-5.523-1.154-8.213-4.274-.1-.231-.857-4.031-1.347-6.546l-.02-.1-26.228,13.959-15.331,4.3a4.538,4.538,0,0,0-.743,8.428l7.431,3.617a23.012,23.012,0,0,0,10.013,2.31h40.311a11.17,11.17,0,0,0,7.076-2.481Z" transform="translate(-260.32 -69.379)" fill="#090814"/><path d="M252.688,73.106a30.778,30.778,0,1,0-40,29.371l5.95,39.322,30.332-25.277A76.414,76.414,0,0,1,238.9,98.765,30.745,30.745,0,0,0,252.688,73.106Z" transform="translate(-102.081 -37.375)" fill="#ed9da0"/><path d="M218.256,107.251l-36.251,23.173-16.732,29.549a41.336,41.336,0,0,0-4.615,28.213l7.688,39.772H248.5l-12.665-82.977a69.765,69.765,0,0,0-11.789-29.447l-5.791-8.283Z" transform="translate(-68.479 -41.137)" fill="#e6e6e6"/><path d="M257.711,113.24s-1.437,10.9-14.753,11.26l-27.011.722s22.834-55.569,13.445-49.309-34.426-19.985-34.426-19.985l-7.388,13.855s-17.65-6.391,1.911-22.042c0,0,23.338-18.043,48.115-7.208s20.108,72.706,20.108,72.706h0Z" transform="translate(-97.222 -37.07)" fill="#090814"/><path d="M216.276,325.669l.647-29.827-17.415-.378-.647,29.827a18.283,18.283,0,0,0-5.509,13.017c-.2,9.3,5.872,16.97,13.567,17.137s14.1-7.235,14.3-16.532A18.284,18.284,0,0,0,216.276,325.669Z" transform="translate(-72.701 -52.044)" fill="#ed9da0"/><path d="M182.523,169.057V313.632h30.245l8.939-143.355" transform="translate(-62.991 -44.719)" fill="#e6e6e6"/><path d="M0,629.472c0,.622.348,1.121.781,1.121H270.67c.433,0,.781-.5.781-1.121s-.348-1.121-.781-1.121H.781C.348,628.351,0,628.85,0,629.472Z" transform="translate(0 -72.773)" fill="#f2f2f2"/></g></g></svg>